<?xml version="1.0" encoding="UTF-8"?>
<svg id="OBJECTS" xmlns="http://www.w3.org/2000/svg" viewBox="0 0 250 527.28">
  <defs>
    <style>
      .cls-1, .cls-2, .cls-3, .cls-4 {
        isolation: isolate;
      }

      .cls-1, .cls-5, .cls-3, .cls-4 {
        fill: #2f4f5a;
      }

      .cls-1, .cls-4 {
        font-family: Roboto-Italic, Roboto;
        font-size: 21.33px;
        font-style: italic;
      }

      .cls-6 {
        fill: #a8a6a3;
      }

      .cls-6, .cls-5, .cls-7, .cls-8 {
        stroke-width: 0px;
      }

      .cls-9 {
        fill: none;
        stroke: #2f4f5a;
        stroke-miterlimit: 10;
      }

      .cls-3 {
        font-family: TeXGyreAdventor-Bold, 'TeX Gyre Adventor';
        font-size: 47.99px;
        font-weight: 700;
      }

      .cls-7 {
        fill: #c5a284;
      }

      .cls-4 {
        letter-spacing: -.06em;
      }

      .cls-8 {
        fill: #ece9e4;
      }
    </style>
  </defs>
  <g>
    <path class="cls-8" d="M194.21,115.09H55.79L0,195.67v331.61h250V195.67l-55.79-80.58ZM125,157.75c-7.28,0-13.17-5.89-13.17-13.17s5.89-13.17,13.17-13.17,13.17,5.89,13.17,13.17-5.89,13.17-13.17,13.17Z"/>
    <polygon class="cls-7" points="0 527.16 125 527.16 250 527.16 250 487.81 0 487.81 0 527.16"/>
    <path class="cls-5" d="M250,456.54c-4.81-1.33-9.88-2.07-15.1-2.07-31.09,0-56.28,25.19-56.28,56.28,0,5.76.87,11.3,2.47,16.53h68.92v-70.74Z"/>
  </g>
  <g>
    <g class="cls-2">
      <text class="cls-3" transform="translate(19.9 252.19)"><tspan x="0" y="0">COMING</tspan></text>
      <text class="cls-3" transform="translate(19.9 301.52)"><tspan x="0" y="0">SOON</tspan></text>
    </g>
    <g class="cls-2">
      <text class="cls-1" transform="translate(19.9 355.58)"><tspan x="0" y="0">ww</tspan></text>
      <text class="cls-4" transform="translate(51.2 355.58)"><tspan x="0" y="0">w</tspan></text>
      <text class="cls-1" transform="translate(65.57 355.58)"><tspan x="0" y="0">.easytripbd.com</tspan></text>
    </g>
    <line class="cls-9" x1="19.9" y1="323.08" x2="126.36" y2="323.08"/>
  </g>
  <g>
    <path class="cls-6" d="M167.82,15.43c-.8-8.76-4.45-14.33-10.02-15.29-5.68-.99-11.81,3.29-15.22,10.65-9.74,21.01-10.16,49.15-10.53,73.97-.04,2.85-.08,5.65-.15,8.37-.4,19.45-.68,41.84,1.01,63.8.87.32,1.79.55,2.73.68-1.75-22.12-1.48-44.79-1.08-64.43.05-2.72.09-5.52.15-8.38.36-24.55.79-52.39,10.29-72.88,2.89-6.25,7.86-9.92,12.34-9.14,4.29.75,7.15,5.45,7.83,12.9,2.15,23.54-6.77,49.5-14.64,72.38-1.47,4.25-2.84,8.28-4.15,12.24-6.68,20.37-7.32,41.88-7,57.31.92-.13,1.81-.36,2.65-.68-.39-22.53,1.81-40.34,6.88-55.79,1.29-3.93,2.67-7.94,4.13-12.2,7.96-23.14,16.98-49.38,14.77-73.49v-.03Z"/>
    <path class="cls-6" d="M146.6,115.24c-.33,0-.68-.13-.93-.39-2.24-2.21-5.08-3.35-8.04-3.19-2.47.13-4.77,1.13-6.67,2.93-.53.51-1.37.48-1.88-.05-.51-.53-.48-1.37.05-1.88,2.35-2.23,5.24-3.49,8.36-3.65,3.69-.2,7.27,1.21,10.04,3.95.52.52.53,1.36.01,1.88-.27.27-.6.4-.95.4Z"/>
  </g>
</svg>