<?xml version="1.0" encoding="UTF-8"?>
<svg id="Layer_1" data-name="Layer 1" xmlns="http://www.w3.org/2000/svg" viewBox="0 0 200 76.85">
  <defs>
    <style>
      .cls-1 {
        fill: #e74325;
      }

      .cls-1, .cls-2 {
        stroke-width: 0px;
      }

      .cls-3 {
        stroke-dasharray: 0 0 1.99 1.99;
      }

      .cls-3, .cls-4, .cls-5, .cls-6, .cls-7 {
        fill: none;
        stroke: #332b2b;
        stroke-linecap: round;
        stroke-miterlimit: 10;
        stroke-width: .25px;
      }

      .cls-4 {
        stroke-dasharray: 0 0 2.19 2.19;
      }

      .cls-6 {
        stroke-dasharray: 0 2;
      }

      .cls-7 {
        stroke-dasharray: 0 0 2.08 2.08;
      }

      .cls-2 {
        fill: #1f1c1f;
      }
    </style>
  </defs>
  <path class="cls-2" d="M0,59.45V19.14h19.98c.92,0,1.67.75,1.67,1.67v5.47s-14.18,0-14.18,0v9.49h13.58s0,5.47,0,5.47c0,.92-.75,1.67-1.67,1.67H7.47s0,9.38,0,9.38h14.18s0,5.47,0,5.47c0,.92-.75,1.67-1.67,1.67H0Z"/>
  <path class="cls-2" d="M51.54,56.12v-.6c-2.89,3.27-5.78,4.64-10.04,4.64-8.84,0-15.22-6.6-15.22-15.71s6.44-15.93,15.38-15.93c4.36,0,7.36,1.42,9.87,4.75v-.71c0-1.84,1.49-3.33,3.33-3.33h.82c1.38,0,2.51,1.12,2.51,2.51v25.2c0,1.38-1.12,2.51-2.51,2.51h-.82c-1.84,0-3.33-1.49-3.33-3.33ZM42.43,35.18c-5.18,0-8.84,3.93-8.84,9.44s3.65,8.89,8.94,8.89,8.78-3.93,8.78-8.94c0-5.51-3.71-9.38-8.89-9.38Z"/>
  <path class="cls-2" d="M72.76,60.16c-4.95,0-8.74-2.23-10.35-6.95-.56-1.64.63-3.36,2.36-3.36h1.9c1.29,0,2.42.74,3.07,1.85.73,1.25,1.78,1.81,3.3,1.81,1.85,0,3.27-1.25,3.27-2.95s-.27-2.24-5.13-3.87c-6-2.02-8.4-4.53-8.4-8.94,0-5.18,4.42-9.22,10.04-9.22,3.95,0,7.54,2.01,9.11,5.52.74,1.66-.48,3.53-2.3,3.53h-1.79c-1.1,0-2.12-.54-2.8-1.42-.5-.65-1.25-.98-2.23-.98-1.58,0-2.78,1.09-2.78,2.56,0,1.58.16,1.69,5.13,3.27,6.33,1.96,8.4,4.36,8.4,8.84,0,5.78-4.75,10.31-10.8,10.31Z"/>
  <path class="cls-2" d="M95.84,69.54h-1.62c-1.81,0-3.02-1.86-2.3-3.51l4.13-9.41-9.68-23.93c-.67-1.65.55-3.45,2.32-3.45h1.88c1.61,0,3.05,1.02,3.57,2.55l5.83,17.03,6.39-17.13c.55-1.47,1.96-2.45,3.53-2.45h1.91c1.8,0,3.02,1.85,2.3,3.5l-15.01,34.65c-.56,1.3-1.85,2.15-3.27,2.15Z"/>
  <g>
    <polyline class="cls-5" points="128.99 16.52 128.99 17.52 129.99 17.52"/>
    <polyline class="cls-5" points="132.84 17.52 133.84 17.52 133.84 16.52"/>
    <path class="cls-3" d="M133.84,14.53v-1.2c0-3.22,2.61-5.83,5.83-5.83,1.61,0,3.06.65,4.12,1.71,1.05,1.05,1.71,2.51,1.71,4.12v3.42"/>
    <path class="cls-5" d="M145.49,17.74v1c.08-.33.17-.65.28-.96"/>
    <path class="cls-4" d="M146.7,15.8c.57-.95,1.27-1.8,2.09-2.52"/>
    <path class="cls-5" d="M149.66,12.58c.27-.19.55-.38.83-.54v-1"/>
    <path class="cls-7" d="M150.32,8.97c-.4-2.2-1.46-4.17-2.98-5.69-1.94-1.95-4.63-3.15-7.6-3.15-5.94,0-10.75,4.81-10.75,10.75v4.61"/>
  </g>
  <path class="cls-6" d="M180.35,13.29c-1.94-1.94-4.63-3.15-7.6-3.15-3.5,0-6.61,1.68-8.57,4.27,1.57,1.86,2.51,4.27,2.51,6.9v4.47l.16-2.44c0-3.22,2.61-5.83,5.83-5.83,1.61,0,3.07.65,4.12,1.7,1.05,1.06,1.71,2.51,1.71,4.12v4.63c0-3.75,1.92-7.05,4.83-8.97-.39-2.21-1.45-4.19-2.98-5.71Z"/>
  <rect class="cls-1" x="161.69" y="30.94" width="5.15" height="4.92"/>
  <path class="cls-1" d="M166.68,21.31v4.47h-4.99v-4.25c0-1.61-.65-3.07-1.71-4.12s-2.51-1.71-4.12-1.71c-2.41,0-4.47,1.46-5.36,3.54-.3.7-.47,1.47-.47,2.29v23.78h-4.53v-26.58c.7-2.85,2.54-5.25,5-6.7,1.59-.94,3.45-1.48,5.44-1.48,2.97,0,5.66,1.21,7.6,3.15.22.22.44.46.64.7,1.57,1.86,2.51,4.27,2.51,6.9Z"/>
  <path class="cls-6" d="M164.51,72.46c-1.95,2.58-5.03,4.24-8.5,4.26-5.95.04-10.82-5.04-10.82-11v-.92c2.3-1.35,4.05-3.54,4.84-6.14v4.17c0,3.15,2.42,5.87,5.57,6.01,3.34.15,6.09-2.52,6.09-5.82,0,0,.5,7.36,2.82,9.43Z"/>
  <path class="cls-1" d="M183.34,60.76v6.59c-.5,3-2.24,5.57-4.67,7.18-1.7,1.13-3.74,1.78-5.92,1.78-3.31,0-6.28-1.5-8.24-3.85-2.32-2.07-2.82-9.43-2.82-9.43v-21.95h5.15v23.75c0,3.22,2.61,5.83,5.83,5.83s5.83-2.61,5.83-5.83v-4.07h4.84Z"/>
  <path class="cls-1" d="M200,27.98v10.73c-.6,3.86-2.74,6.15-5,7.51-3.1,1.86-6.44,1.98-6.44,1.98v-4.84c6.36-.29,6.44-5.39,6.44-5.63h0v-9.52c0-1.61-.65-3.07-1.71-4.12-1.05-1.06-2.51-1.71-4.12-1.71-2.77,0-5.08,1.93-5.68,4.51-.1.42-.15.86-.15,1.32v27.03h-4.84v-27.25c0-3.75,1.92-7.05,4.83-8.97,1.7-1.13,3.74-1.78,5.92-1.78,2.97,0,5.65,1.2,7.6,3.15s3.15,4.63,3.15,7.6Z"/>
  <path class="cls-1" d="M145.49,50.69h4.53v7.98c-.79,2.6-2.54,4.79-4.84,6.14-1.59.94-3.45,1.48-5.44,1.48-5.94,0-10.75-4.81-10.75-10.75v-22.33h-6.66v-4.99h6.66v-10.69h4.84v10.69h7.12v4.99h-7.12v21.61c0,3.22,2.61,5.83,5.83,5.83,2.56,0,4.74-1.65,5.51-3.95.2-.59.31-1.22.31-1.87"/>
</svg>